# This file uses centimeters as units for non-parametric coordinates.

mtllib bookshelf.mtl
g default
v -0.500000 -2.230787 1.266644
v 0.500000 -2.230787 1.266644
v -0.500000 -0.743596 1.266644
v 0.500000 -0.743596 1.266644
v -0.500000 0.743596 1.266644
v 0.500000 0.743596 1.266644
v -0.500000 2.230787 1.266644
v 0.500000 2.230787 1.266644
v -0.500000 2.230787 -1.266644
v 0.500000 2.230787 -1.266644
v -0.500000 0.743596 -1.266644
v 0.500000 0.743596 -1.266644
v -0.500000 -0.743596 -1.266644
v 0.500000 -0.743596 -1.266644
v -0.500000 -2.230787 -1.266644
v 0.500000 -2.230787 -1.266644
v 0.500000 0.816166 -1.143028
v 0.500000 0.816166 1.143028
v 0.500000 2.158217 -1.143028
v 0.500000 2.158217 1.143028
v -0.211054 0.816166 -1.143028
v -0.211054 0.816166 1.143028
v -0.211054 2.158217 -1.143028
v -0.211054 2.158217 1.143028
v 0.500000 -0.672004 -1.144694
v 0.500000 -0.672004 1.144694
v 0.500000 0.672004 -1.144694
v 0.500000 0.672004 1.144694
v -0.116315 -0.672004 -1.144694
v -0.116315 -0.672004 1.144694
v -0.116315 0.672004 -1.144694
v -0.116315 0.672004 1.144694
v 0.500000 -2.176937 -1.174916
v 0.500000 -2.176937 1.174916
v 0.500000 -0.797446 -1.174916
v 0.500000 -0.797446 1.174916
v -0.217031 -2.176937 -1.174916
v -0.217031 -2.176937 1.174916
v -0.217031 -0.797446 -1.174916
v -0.217031 -0.797446 1.174916
vt 0.068838 0.504459
vt 0.068838 0.264478
vt 0.148831 0.264478
vt 0.148831 0.504459
vt 0.384844 0.760771
vt 0.384844 0.526963
vt 0.462780 0.526963
vt 0.462780 0.760771
vt 0.800748 0.760431
vt 0.800748 0.526963
vt 0.878570 0.526963
vt 0.878570 0.760431
vt 0.419134 0.264478
vt 0.677851 0.264478
vt 0.677851 0.350717
vt 0.419134 0.350717
vt 0.677851 0.436956
vt 0.419134 0.436956
vt 0.677851 0.523194
vt 0.419134 0.523194
vt 0.154625 0.436956
vt 0.413341 0.436956
vt 0.400717 0.441164
vt 0.167249 0.441164
vt 0.167079 0.432804
vt 0.400887 0.432804
vt 0.413341 0.523194
vt 0.400717 0.518986
vt 0.154625 0.523194
vt 0.167249 0.518986
vt 0.154625 0.350717
vt 0.167079 0.354868
vt 0.413341 0.350717
vt 0.400887 0.354868
vt 0.163992 0.347594
vt 0.403973 0.347594
vt 0.154625 0.264478
vt 0.163992 0.267600
vt 0.413341 0.264478
vt 0.403973 0.267600
vt 0.267066 0.001992
vt 0.525782 0.001992
vt 0.525782 0.260709
vt 0.267066 0.260709
vt 0.683644 0.264478
vt 0.942361 0.264478
vt 0.942361 0.523194
vt 0.683644 0.523194
vt 0.942361 0.764540
vt 0.942361 0.998008
vt 0.758399 0.998008
vt 0.758399 0.764540
vt 0.752606 0.764540
vt 0.752606 0.998008
vt 0.568645 0.998008
vt 0.568645 0.764540
vt 0.628948 0.526963
vt 0.628948 0.760771
vt 0.469497 0.760771
vt 0.469497 0.526963
vt 0.794573 0.526963
vt 0.794573 0.760772
vt 0.635122 0.760772
vt 0.635122 0.526963
vt 0.187389 0.526963
vt 0.187389 0.766944
vt 0.001881 0.766944
vt 0.001881 0.526963
vt 0.378962 0.526963
vt 0.378962 0.766944
vt 0.193454 0.766944
vt 0.193454 0.526963
vt 0.001881 0.001992
vt 0.260598 0.001992
vt 0.260598 0.088231
vt 0.001881 0.088231
vt 0.260598 0.174470
vt 0.001881 0.174470
vt 0.260598 0.260709
vt 0.001881 0.260709
vt 0.532066 0.001992
vt 0.790783 0.001992
vt 0.790783 0.088231
vt 0.532066 0.088231
vt 0.790783 0.174470
vt 0.532066 0.174470
vt 0.790783 0.260709
vt 0.532066 0.260709
vt 0.313455 0.770713
vt 0.391278 0.770713
vt 0.391278 0.954675
vt 0.313455 0.954675
vt 0.229839 0.770713
vt 0.307662 0.770713
vt 0.307662 0.954675
vt 0.229839 0.954675
vt 0.146110 0.770713
vt 0.224046 0.770713
vt 0.224046 0.930164
vt 0.146110 0.930164
vt 0.062381 0.770713
vt 0.140317 0.770713
vt 0.140317 0.930165
vt 0.062381 0.930165
vt 0.482858 0.764540
vt 0.562851 0.764540
vt 0.562851 0.950048
vt 0.482858 0.950048
vt 0.397071 0.764540
vt 0.477064 0.764540
vt 0.477064 0.950048
vt 0.397071 0.950048
vn 0.000000 0.000000 1.000000
vn 0.000000 0.000000 1.000000
vn 0.000000 0.000000 1.000000
vn 0.000000 0.000000 1.000000
vn 0.000000 0.000000 1.000000
vn 0.000000 0.000000 1.000000
vn 0.000000 0.000000 1.000000
vn 0.000000 0.000000 1.000000
vn 0.000000 1.000000 0.000000
vn 0.000000 1.000000 0.000000
vn 0.000000 1.000000 0.000000
vn 0.000000 1.000000 0.000000
vn 0.000000 0.000000 -1.000000
vn 0.000000 0.000000 -1.000000
vn 0.000000 0.000000 -1.000000
vn 0.000000 0.000000 -1.000000
vn 0.000000 0.000000 -1.000000
vn 0.000000 0.000000 -1.000000
vn 0.000000 0.000000 -1.000000
vn 0.000000 0.000000 -1.000000
vn 0.000000 -1.000000 0.000000
vn 0.000000 -1.000000 0.000000
vn 0.000000 -1.000000 0.000000
vn 0.000000 -1.000000 0.000000
vn 1.000000 0.000000 0.000000
vn 1.000000 0.000000 0.000000
vn 1.000000 0.000000 0.000000
vn 1.000000 0.000000 0.000000
vn 1.000000 0.000000 0.000000
vn 1.000000 0.000000 0.000000
vn 1.000000 0.000000 0.000000
vn 1.000000 0.000000 0.000000
vn 1.000000 0.000000 0.000000
vn 1.000000 0.000000 0.000000
vn 1.000000 0.000000 0.000000
vn 1.000000 0.000000 0.000000
vn -1.000000 0.000000 0.000000
vn -1.000000 0.000000 0.000000
vn -1.000000 0.000000 0.000000
vn -1.000000 0.000000 0.000000
vn -1.000000 0.000000 0.000000
vn -1.000000 0.000000 0.000000
vn -1.000000 0.000000 0.000000
vn -1.000000 0.000000 0.000000
vn 1.000000 -0.000000 0.000000
vn 1.000000 -0.000000 0.000000
vn 1.000000 -0.000000 0.000000
vn 1.000000 -0.000000 0.000000
vn 1.000000 0.000000 0.000000
vn 1.000000 0.000000 0.000000
vn 1.000000 0.000000 0.000000
vn 1.000000 0.000000 0.000000
vn 1.000000 0.000000 0.000000
vn 1.000000 0.000000 0.000000
vn 1.000000 0.000000 0.000000
vn 1.000000 0.000000 0.000000
vn 1.000000 0.000000 0.000000
vn 1.000000 0.000000 0.000000
vn 1.000000 0.000000 0.000000
vn 1.000000 0.000000 0.000000
vn 0.000000 1.000000 -0.000000
vn 0.000000 1.000000 -0.000000
vn 0.000000 1.000000 -0.000000
vn 0.000000 1.000000 -0.000000
vn 0.000000 0.000000 1.000000
vn 0.000000 0.000000 1.000000
vn 0.000000 0.000000 1.000000
vn 0.000000 0.000000 1.000000
vn 0.000000 -1.000000 0.000000
vn 0.000000 -1.000000 0.000000
vn 0.000000 -1.000000 0.000000
vn 0.000000 -1.000000 0.000000
vn 0.000000 0.000000 -1.000000
vn 0.000000 0.000000 -1.000000
vn 0.000000 0.000000 -1.000000
vn 0.000000 0.000000 -1.000000
vn 1.000000 -0.000000 0.000000
vn 1.000000 -0.000000 0.000000
vn 1.000000 -0.000000 0.000000
vn 1.000000 -0.000000 0.000000
vn 1.000000 0.000000 0.000000
vn 1.000000 0.000000 0.000000
vn 1.000000 0.000000 0.000000
vn 1.000000 0.000000 0.000000
vn 1.000000 0.000000 0.000000
vn 1.000000 0.000000 0.000000
vn 1.000000 0.000000 0.000000
vn 1.000000 0.000000 0.000000
vn 1.000000 0.000000 0.000000
vn 1.000000 0.000000 0.000000
vn 1.000000 0.000000 0.000000
vn 1.000000 0.000000 0.000000
vn 0.000000 1.000000 -0.000000
vn 0.000000 1.000000 -0.000000
vn 0.000000 1.000000 -0.000000
vn 0.000000 1.000000 -0.000000
vn 0.000000 0.000000 1.000000
vn 0.000000 0.000000 1.000000
vn 0.000000 0.000000 1.000000
vn 0.000000 0.000000 1.000000
vn 0.000000 -1.000000 0.000000
vn 0.000000 -1.000000 0.000000
vn 0.000000 -1.000000 0.000000
vn 0.000000 -1.000000 0.000000
vn 0.000000 0.000000 -1.000000
vn 0.000000 0.000000 -1.000000
vn 0.000000 0.000000 -1.000000
vn 0.000000 0.000000 -1.000000
vn 1.000000 -0.000000 0.000000
vn 1.000000 -0.000000 0.000000
vn 1.000000 -0.000000 0.000000
vn 1.000000 -0.000000 0.000000
vn 1.000000 0.000000 0.000000
vn 1.000000 0.000000 0.000000
vn 1.000000 0.000000 0.000000
vn 1.000000 0.000000 0.000000
vn 1.000000 0.000000 0.000000
vn 1.000000 0.000000 0.000000
vn 1.000000 0.000000 0.000000
vn 1.000000 0.000000 0.000000
vn 1.000000 0.000000 0.000000
vn 1.000000 0.000000 0.000000
vn 1.000000 0.000000 0.000000
vn 1.000000 0.000000 0.000000
vn 0.000000 1.000000 0.000000
vn 0.000000 1.000000 0.000000
vn 0.000000 1.000000 0.000000
vn 0.000000 1.000000 0.000000
vn 0.000000 0.000000 1.000000
vn 0.000000 0.000000 1.000000
vn 0.000000 0.000000 1.000000
vn 0.000000 0.000000 1.000000
vn 0.000000 -1.000000 0.000000
vn 0.000000 -1.000000 0.000000
vn 0.000000 -1.000000 0.000000
vn 0.000000 -1.000000 0.000000
vn 0.000000 0.000000 -1.000000
vn 0.000000 0.000000 -1.000000
vn 0.000000 0.000000 -1.000000
vn 0.000000 0.000000 -1.000000
s 1
g pCube1
usemtl lambert3SG
f 1/73/1 2/74/2 4/75/3 3/76/4
f 3/76/4 4/75/3 6/77/5 5/78/6
f 5/78/6 6/77/5 8/79/7 7/80/8
s off
f 7/41/9 8/42/10 10/43/11 9/44/12
s 2
f 9/81/13 10/82/14 12/83/15 11/84/16
f 11/84/16 12/83/15 14/85/17 13/86/18
f 13/86/18 14/85/17 16/87/19 15/88/20
s off
f 15/45/21 16/46/22 2/47/23 1/48/24
f 38/1/25 37/2/26 39/3/27 40/4/28
f 30/5/29 29/6/30 31/7/31 32/8/32
f 22/9/33 21/10/34 23/11/35 24/12/36
s 3
f 15/13/37 1/14/38 3/15/39 13/16/40
f 13/16/40 3/15/39 5/17/41 11/18/42
f 11/18/42 5/17/41 7/19/43 9/20/44
s off
f 6/21/45 12/22/46 17/23/47 18/24/48
f 12/22/49 10/27/50 19/28/51 17/23/52
f 10/27/53 8/29/54 20/30/55 19/28/56
f 8/29/57 6/21/58 18/24/59 20/30/60
f 18/49/61 17/50/62 21/51/63 22/52/64
f 17/89/65 19/90/66 23/91/67 21/92/68
f 19/53/69 20/54/70 24/55/71 23/56/72
f 20/93/73 18/94/74 22/95/75 24/96/76
f 4/31/77 14/33/78 25/34/79 26/32/80
f 14/33/81 12/22/82 27/26/83 25/34/84
f 12/22/85 6/21/86 28/25/87 27/26/88
f 6/21/89 4/31/90 26/32/91 28/25/92
f 26/57/93 25/58/94 29/59/95 30/60/96
f 25/97/97 27/98/98 31/99/99 29/100/100
f 27/61/101 28/62/102 32/63/103 31/64/104
f 28/101/105 26/102/106 30/103/107 32/104/108
f 2/37/109 16/39/110 33/40/111 34/38/112
f 16/39/113 14/33/114 35/36/115 33/40/116
f 14/33/117 4/31/118 36/35/119 35/36/120
f 4/31/121 2/37/122 34/38/123 36/35/124
f 34/65/125 33/66/126 37/67/127 38/68/128
f 33/105/129 35/106/130 39/107/131 37/108/132
f 35/69/133 36/70/134 40/71/135 39/72/136
f 36/109/137 34/110/138 38/111/139 40/112/140
