# This file uses centimeters as units for non-parametric coordinates.

mtllib rod material.mtl
g default
v -2.900301 -0.500000 0.900517
v 3.652559 -0.500000 0.900517
v -2.900301 0.500000 0.900517
v 3.652559 0.500000 0.900517
v -2.900301 0.500000 -0.099483
v 3.652559 0.500000 -0.099483
v -2.900301 -0.500000 -0.099483
v 3.652559 -0.500000 -0.099483
vt 0.638701 0.001992
vt 0.790699 0.001992
vt 0.790699 0.153989
vt 0.638701 0.153989
vt 0.795675 0.309776
vt 0.795675 0.157779
vt 0.947672 0.157779
vt 0.947672 0.309776
vt 0.161233 0.998008
vt 0.161233 0.001992
vt 0.313230 0.001992
vt 0.313230 0.998008
vt 0.479545 0.998008
vt 0.479545 0.001992
vt 0.631542 0.001992
vt 0.631542 0.998008
vt 0.001892 0.998008
vt 0.001892 0.001992
vt 0.153889 0.001992
vt 0.153889 0.998008
vt 0.320389 0.998008
vt 0.320389 0.001992
vt 0.472386 0.001992
vt 0.472386 0.998008
vn 0.000000 0.000000 1.000000
vn 0.000000 0.000000 1.000000
vn 0.000000 0.000000 1.000000
vn 0.000000 0.000000 1.000000
vn 0.000000 1.000000 0.000000
vn 0.000000 1.000000 0.000000
vn 0.000000 1.000000 0.000000
vn 0.000000 1.000000 0.000000
vn 0.000000 0.000000 -1.000000
vn 0.000000 0.000000 -1.000000
vn 0.000000 0.000000 -1.000000
vn 0.000000 0.000000 -1.000000
vn 0.000000 -1.000000 0.000000
vn 0.000000 -1.000000 0.000000
vn 0.000000 -1.000000 0.000000
vn 0.000000 -1.000000 0.000000
vn 1.000000 0.000000 0.000000
vn 1.000000 0.000000 0.000000
vn 1.000000 0.000000 0.000000
vn 1.000000 0.000000 0.000000
vn -1.000000 0.000000 0.000000
vn -1.000000 0.000000 0.000000
vn -1.000000 0.000000 0.000000
vn -1.000000 0.000000 0.000000
s off
g uv_mesh
usemtl lambert2SG
f 1/17/1 2/18/2 4/19/3 3/20/4
f 3/9/5 4/10/6 6/11/7 5/12/8
f 5/21/9 6/22/10 8/23/11 7/24/12
f 7/13/13 8/14/14 2/15/15 1/16/16
f 2/1/17 8/2/18 6/3/19 4/4/20
f 7/5/21 1/6/22 3/7/23 5/8/24
